# AST/ASF file generated using VICON BodyLanguage
# -----------------------------------------------
:version 1.10
:name VICON
:units
  mass 1.0
  length 0.45
  angle deg
:documentation
   .ast/.asf automatically generated from VICON data using
   VICON BodyBuilder and BodyLanguage model FoxedUp or BRILLIANT.MOD
:root
   order TX TY TZ RX RY RZ
   axis XYZ
   position 0 0 0  
   orientation 0 0 0 
:bonedata
  begin
     id 1 
     name lhipjoint
     direction 0.690799 -0.707083 0.151096 
     length 2.54797 
     axis 0 0 0  XYZ
  end
  begin
     id 2 
     name lfemur
     direction 0.34202 -0.939693 0  
     length 7.21646  
     axis 0 0 20  XYZ
    dof rx ry rz
    limits (-160.0 20.0)
           (-70.0 70.0)
           (-60.0 70.0)
  end
  begin
     id 3 
     name ltibia
     direction 0.34202 -0.939693 0   
     length 8.16759   
     axis 0 0 20   XYZ
    dof rx
    limits (-10.0 170.0)
  end
  begin
     id 4 
     name lfoot
     direction 0.0487203 -0.133858 0.989802   
     length 1.93375   
     axis -90 7.62852e-016 20   XYZ
    dof rx rz
    limits (-45.0 90.0)
           (-70.0 20.0)
  end
  begin
     id 5 
     name ltoes
     direction 1.53453e-011 -4.21783e-011 1   
     length 0.979747   
     axis -90 7.62852e-016 20   XYZ
    dof rx
    limits (-90.0 20.0)
  end
  begin
     id 6 
     name rhipjoint
     direction -0.694693 -0.703425 0.150315   
     length 2.56122  
     axis 0 0 0  XYZ 
  end
  begin
     id 7 
     name rfemur
     direction -0.34202 -0.939693 0   
     length 7.36786   
     axis 0 0 -20   XYZ
    dof rx ry rz
    limits (-160.0 20.0)
           (-70.0 70.0)
           (-70.0 60.0)
  end
  begin
     id 8 
     name rtibia
     direction -0.34202 -0.939693 0   
     length 8.07288   
     axis 0 0 -20   XYZ
    dof rx
    limits (-10.0 170.0)
 end
 begin
     id 9 
     name rfoot
     direction -0.0428397 -0.117701 0.992125   
     length 1.88295  
     axis -90 -7.62852e-016 -20   XYZ
    dof rx rz
    limits (-45.0 90.0)
           (-20.0 70.0)
  end
  begin
     id 10 
     name rtoes
     direction -1.53456e-011 -4.2187e-011 1   
     length 0.955578   
     axis -90 -7.62852e-016 -20   XYZ
    dof rx
    limits (-90.0 20.0)
  end
  begin
     id 11 
     name lowerback
     direction 0.0288145 0.999398 -0.0193241   
     length 1.92149   
     axis 0 0 0   XYZ
    dof rx ry rz
    limits (-20.0 45.0)
           (-30.0 30.0)
           (-30.0 30.0)
  end
  begin
     id 12 
     name upperback
     direction 0.0233784 0.998099 0.0570278   
     length 1.90435   
     axis 0 0 0   XYZ
    dof rx ry rz
    limits (-20.0 45.0)
           (-30.0 30.0)
           (-30.0 30.0)
  end
  begin
     id 13 
     name thorax
     direction 0.0096694 0.997833 0.0650817   
     length 1.9111   
     axis 0 0 0   XYZ
    dof rx ry rz
    limits (-20.0 45.0)
           (-30.0 30.0)
           (-30.0 30.0)
  end
  begin
     id 14 
     name lowerneck
     direction 0.00516803 0.999916 0.0118722   
     length 1.74664   
     axis 0 0 0   XYZ
    dof rx ry rz
    limits (-20.0 45.0)
           (-30.0 30.0)
           (-30.0 30.0)
  end
  begin
     id 15 
     name upperneck
     direction -0.0510851 0.996117 -0.071696   
     length 1.68498   
     axis 0 0 0   XYZ
    dof rx ry rz
    limits (-20.0 45.0)
           (-30.0 30.0)
           (-30.0 30.0)
  end
  begin
     id 16
     name head
     direction -0.019188 0.999436 -0.0275702  
     length 1.83483  
     axis 0 0 0   XYZ
    dof rx ry rz
    limits (-20.0 45.0)
           (-30.0 30.0)
           (-30.0 30.0)
  end
  begin
     id 17 
     name lclavicle
     direction 0.967006 0.248456 -0.0562957  
     length 3.39395  
     axis 0 0 0   XYZ
    dof ry rz
    limits (-20.0 10.0)
           (0.0 20.0)
  end
  begin
     id 18 
     name lhumerus
     direction 1 -4.48962e-011 -5.62711e-019   
     length 5.24318   
     axis 180 -30 -90   XYZ
    dof rx ry rz
    limits (-60.0 90.0)
           (-90.0 90.0)
           (-90.0 90.0)
  end
  begin
     id 19
     name lradius
     direction 1 -4.48966e-011 7.90625e-027   
     length 2.98999   
     axis 180 -30 -90   XYZ
    dof rx
    limits (-10.0 170.0)
  end
  begin
     id 20
     name lwrist
     direction 1 -4.48959e-011 1.61068e-026   
     length 1.49499   
     axis -9.31229e-015 90 90   XYZ
    dof ry
    limits (-180.0 0.0)
 end
  begin
     id 21 
     name lhand
     direction 1 -4.49017e-011 3.22136e-026   
     length 0.726745   
     axis -2.0555e-014 90 90   XYZ
    dof rx rz
    limits (-90.0 90.0)
           (-45.0 45.0)
  end
  begin
     id 22 
     name lfingers
     direction 1 -4.4898e-011 6.44272e-026   
     length 0.58592   
     axis -4.11101e-014 90 90   XYZ
    dof rx
    limits (0.0 90.0)
  end
  begin
     id 23
     name lthumb
     direction 0.707107 -6.34922e-011 0.707107   
     length 0.841268   
     axis -90 45 2.85299e-015   XYZ
    dof rx rz
    limits (-45.0 45.0)
           (-45.0 45.0)
  end
  begin
     id 24 
     name rclavicle
     direction -0.972232 0.230238 0.0419005   
     length 3.40416  
     axis 0 0 0   XYZ 
    dof ry rz
    limits (-10.0 20.0)
           (-20.0 0.0)
  end
  begin
     id 25 
     name rhumerus
     direction -1 -4.48976e-011 2.48487e-027  
     length 5.37045   
     axis 180 30 90   XYZ
    dof rx ry rz
    limits (-90.0 60.0)
           (-90.0 90.0)
           (-90.0 90.0)
  end
  begin
     id 26 
     name rradius
     direction -1 -4.48942e-011 7.87951e-027   
     length 2.92792   
     axis 180 30 90   XYZ
    dof rx
    limits (-10.0 170.0)
  end
  begin
     id 27 
     name rwrist
     direction -1 -4.48969e-011 1.61068e-026   
     length 1.46396   
     axis -9.31229e-015 -90 -90   XYZ
    dof ry
    limits (-180.0 0.0)
  end
  begin
     id 28
     name rhand
     direction -1 -4.49043e-011 3.22136e-026   
     length 0.784497   
     axis -2.0555e-014 -90 -90   XYZ
    dof rx rz
    limits (-90.0 90.0)
           (-45.0 45.0)
  end
  begin
     id 29
     name rfingers
     direction -1 -4.48823e-011 6.44272e-026   
     length 0.632482   
     axis -4.11101e-014 -90 -90   XYZ
    dof rx
    limits (0.0 90.0)
  end
  begin
     id 30
     name rthumb
     direction -0.707107 -6.34923e-011 0.707107   
     length 0.908121   
     axis -90 -45 -2.85299e-015   XYZ
    dof rx rz
    limits (-45.0 45.0)
           (-45.0 45.0)
  end
:hierarchy
  begin
    root lhipjoint rhipjoint lowerback
    lhipjoint lfemur
    lfemur ltibia
    ltibia lfoot
    lfoot ltoes
    rhipjoint rfemur
    rfemur rtibia
    rtibia rfoot
    rfoot rtoes
    lowerback upperback
    upperback thorax
    thorax lowerneck lclavicle rclavicle
    lowerneck upperneck
    upperneck head
    lclavicle lhumerus
    lhumerus lradius
    lradius lwrist
    lwrist lhand lthumb
    lhand lfingers
    rclavicle rhumerus
    rhumerus rradius
    rradius rwrist
    rwrist rhand rthumb
    rhand rfingers
  end

#!OML:ASF E:\Style6\Style6.ASF
:FULLY-SPECIFIED
:DEGREES
1275
root 0.236307 18.2514 1.09494 25.1378 -12.0385 -1.93582
lowerback 1.80034 -1.53244 4.0344
upperback -6.67361 -1.64338 3.09317
thorax -8.03854 -0.968522 1.1461
lowerneck -6.21396 3.40821 3.97891
upperneck 12.4135 5.16098 -7.85069
head 5.05059 2.22455 -2.76602
rclavicle -8.05078e-015 -3.02153e-014
rhumerus -8.42563 16.5234 -87.6499
rradius 35.812
rwrist 48.5307
rhand -28.4053 13.4742
rfingers 7.12502
rthumb -1.77732 -16.4981
lclavicle -8.05078e-015 -3.02153e-014
lhumerus -3.72001 -30.3766 87.9513
lradius 34.689
lwrist -21.5263
lhand -25.0048 25.3485
lfingers 7.12502
lthumb 1.50695 55.3229
rfemur -31.1184 26.9365 7.74844
rtibia 9.79364
rfoot -9.61964 -29.1394
rtoes 14.4001
lfemur -26.7004 -7.85416 -14.8712
ltibia 17.7345
lfoot -8.62363 26.3162
ltoes -5.99158
1276
root 0.234083 18.2511 1.09119 25.0775 -12.1051 -1.86747
lowerback 1.8554 -1.5154 3.93536
upperback -6.65746 -1.62553 3.06019
thorax -8.05005 -0.954354 1.16606
lowerneck -6.29196 3.42108 4.03634
upperneck 12.4836 5.17854 -7.87729
head 5.08867 2.2311 -2.7815
rclavicle 2.48481e-015 -3.18055e-015
rhumerus -8.4175 16.4907 -87.6528
rradius 35.8617
rwrist 48.5288
rhand -28.3606 13.4817
rfingers 7.12502
rthumb -1.73423 -16.491
lclavicle 2.48481e-015 -3.18055e-015
lhumerus -3.68746 -30.4801 87.8928
lradius 34.7182
lwrist -21.4023
lhand -24.8668 25.3634
lfingers 7.12502
lthumb 1.64021 55.3368
rfemur -31.0895 26.9526 7.67277
rtibia 9.78476
rfoot -9.56342 -29.1032
rtoes 14.2451
lfemur -26.5744 -7.85223 -14.9554
ltibia 17.5894
lfoot -8.62093 26.3526
ltoes -5.94137
1277
root 0.231784 18.2503 1.08607 25.0801 -12.1364 -1.83961
lowerback 1.87087 -1.51227 3.86908
upperback -6.65926 -1.62427 3.06065
thorax -8.05853 -0.949535 1.20386
lowerneck -6.38903 3.44139 4.05745
upperneck 12.5985 5.21312 -7.90792
head 5.14417 2.24264 -2.79083
rclavicle -1.20265e-014 6.52014e-014
rhumerus -8.39268 16.5521 -87.6444
rradius 35.8797
rwrist 48.4955
rhand -28.375 13.3689
rfingers 7.12502
rthumb -1.74813 -16.6037
lclavicle -1.20265e-014 6.52014e-014
lhumerus -3.65052 -30.5319 87.8546
lradius 34.6947
lwrist -21.2894
lhand -24.9107 25.3788
lfingers 7.12502
lthumb 1.59777 55.3525
rfemur -31.1356 26.947 7.6309
rtibia 9.80787
rfoot -9.68064 -29.0436
rtoes 14.6344
lfemur -26.571 -7.79648 -14.993
ltibia 17.5346
lfoot -8.47066 26.3534
ltoes -6.16762
1278
root 0.230704 18.2514 1.08239 25.0649 -12.1354 -1.81277
lowerback 1.86347 -1.49045 3.8725
upperback -6.6558 -1.59695 3.03261
thorax -8.05093 -0.937157 1.16952
lowerneck -6.36598 3.43 4.07005
upperneck 12.6045 5.19898 -7.9219
head 5.14181 2.23589 -2.79865
rclavicle -6.16232e-015 1.27222e-014
rhumerus -8.36509 16.5936 -87.6239
rradius 35.8364
rwrist 48.4076
rhand -28.4334 13.2495
rfingers 7.12502
rthumb -1.80451 -16.7226
lclavicle -6.16232e-015 1.27222e-014
lhumerus -3.62977 -30.6619 87.8361
lradius 34.6661
lwrist -21.214
lhand -24.9612 25.2614
lfingers 7.12502
lthumb 1.54903 55.2355
rfemur -31.1179 26.9203 7.6219
rtibia 9.79217
rfoot -9.67163 -28.9958
rtoes 14.5766
lfemur -26.5951 -7.8123 -15.004
ltibia 17.5604
lfoot -8.48124 26.3277
ltoes -6.04052
1279
root 0.230231 18.2514 1.08052 25.0414 -12.0925 -1.89299
lowerback 1.83526 -1.47659 4.01257
upperback -6.62719 -1.57278 3.02993
thorax -8.00823 -0.933672 1.08464
lowerneck -6.29219 3.42991 4.05514
upperneck 12.5511 5.1943 -7.88905
head 5.11121 2.23767 -2.78727
rclavicle -5.42682e-014 6.36111e-014
rhumerus -8.31153 16.6716 -87.6003
rradius 35.8035
rwrist 48.303
rhand -28.4328 13.1886
rfingers 7.12502
rthumb -1.8039 -16.7836
lclavicle -5.42682e-014 6.36111e-014
lhumerus -3.61933 -30.7144 87.8112
lradius 34.6831
lwrist -21.1957
lhand -25.0167 25.2771
lfingers 7.12502
lthumb 1.4954 55.2517
rfemur -31.041 26.9155 7.75671
rtibia 9.75654
rfoot -9.43192 -29.0293
rtoes 14.0668
lfemur -26.5813 -7.79672 -14.9161
ltibia 17.5989
lfoot -8.48718 26.2879
ltoes -5.86251
1280
root 0.229321 18.2512 1.07834 25.031 -12.0067 -1.97777
lowerback 1.81629 -1.49847 4.15493
upperback -6.6049 -1.59454 3.05001
thorax -7.97809 -0.952276 1.02722
lowerneck -6.28629 3.44582 4.07929
upperneck 12.5442 5.21609 -7.91307
head 5.11068 2.24821 -2.79733
rclavicle 7.95139e-015 0
rhumerus -8.2537 16.7689 -87.5956
rradius 35.7558
rwrist 48.2459
rhand -28.4482 13.1562
rfingers 7.12502
rthumb -1.81883 -16.8158
lclavicle 7.95139e-015 0
lhumerus -3.61174 -30.6704 87.7871
lradius 34.6875
lwrist -21.1756
lhand -25.115 25.4162
lfingers 7.12502
lthumb 1.40049 55.3914
rfemur -30.9554 26.8767 7.92084
rtibia 9.70771
rfoot -9.36855 -29.0205
rtoes 14.1931
lfemur -26.5829 -7.78562 -14.8086
ltibia 17.6437
lfoot -8.48355 26.2021
ltoes -5.74023
1281
root 0.227666 18.2516 1.0753 24.9886 -11.9473 -1.93803
lowerback 1.82277 -1.53219 4.13495
upperback -6.58767 -1.64088 3.05795
thorax -7.96292 -0.973264 1.0504
lowerneck -6.33955 3.47653 4.12507
upperneck 12.5964 5.26266 -7.97106
head 5.14149 2.26727 -2.81905
rclavicle 2.64384e-014 1.11319e-014
rhumerus -8.20224 16.8575 -87.5763
rradius 35.7024
rwrist 48.2083
rhand -28.4792 13.1909
rfingers 7.12502
rthumb -1.84877 -16.7809
lclavicle 2.64384e-014 1.11319e-014
lhumerus -3.61529 -30.6465 87.7668
lradius 34.7086
lwrist -21.1266
lhand -25.1147 25.5229
lfingers 7.12502
lthumb 1.40075 55.4981
rfemur -30.8544 26.8032 7.95277
rtibia 9.62704
rfoot -9.38511 -29.018
rtoes 14.3254
lfemur -26.5906 -7.78721 -14.8349
ltibia 17.6981
lfoot -8.46378 26.1043
ltoes -5.85973
1282
root 0.226154 18.2516 1.07114 25.0068 -11.8927 -1.94489
lowerback 1.80306 -1.54988 4.14873
upperback -6.59663 -1.66355 3.07818
thorax -7.96149 -0.984726 1.06574
lowerneck -6.35138 3.48749 4.12468
upperneck 12.6313 5.2821 -7.9902
head 5.15602 2.27458 -2.82348
rclavicle 3.08116e-014 -1.82882e-014
rhumerus -8.20041 16.8469 -87.5708
rradius 35.6788
rwrist 48.2522
rhand -28.4702 13.2122
rfingers 7.12502
rthumb -1.84 -16.7596
lclavicle 3.08116e-014 -1.82882e-014
lhumerus -3.61154 -30.6118 87.7552
lradius 34.7063
lwrist -21.129
lhand -24.9525 25.4209
lfingers 7.12502
lthumb 1.55744 55.395
rfemur -30.8384 26.7436 7.99885
rtibia 9.575
rfoot -9.35155 -28.9975
rtoes 14.2993
lfemur -26.6561 -7.75845 -14.8112
ltibia 17.7273
lfoot -8.36969 26.0768
ltoes -6.22318
1283
root 0.224891 18.2517 1.06847 24.9929 -11.8586 -1.96208
lowerback 1.82782 -1.55846 4.16933
upperback -6.6143 -1.66973 3.10576
thorax -7.99545 -0.988504 1.08552
lowerneck -6.33759 3.46921 4.05862
upperneck 12.6688 5.26452 -7.96976
head 5.16189 2.26369 -2.80768
rclavicle 8.34896e-015 2.46493e-014
rhumerus -8.24937 16.8627 -87.5469
rradius 35.741
rwrist 48.2713
rhand -28.4126 13.2405
rfingers 7.12502
rthumb -1.78438 -16.7317
lclavicle 8.34896e-015 2.46493e-014
lhumerus -3.62853 -30.6822 87.7539
lradius 34.7064
lwrist -21.0426
lhand -24.8569 25.5133
lfingers 7.12502
lthumb 1.64978 55.4866
rfemur -30.8233 26.7134 8.05985
rtibia 9.60042
rfoot -9.36523 -28.9526
rtoes 14.4192
lfemur -26.6468 -7.76617 -14.7785
ltibia 17.7094
lfoot -8.40843 26.1085
ltoes -6.18286
1284
root 0.224379 18.2521 1.06664 24.9713 -11.8346 -1.96532
lowerback 1.80928 -1.55283 4.17503
upperback -6.60312 -1.66207 3.12651
thorax -7.97198 -0.984049 1.1024
lowerneck -6.2933 3.44673 4.01435
upperneck 12.6104 5.23736 -7.97871
head 5.13371 2.24996 -2.80569
rclavicle -6.09275e-014 -2.3059e-014
rhumerus -8.25448 16.8549 -87.4911
rradius 35.7905
rwrist 48.2989
rhand -28.3621 13.2485
rfingers 7.12502
rthumb -1.73561 -16.7242
lclavicle -6.09275e-014 -2.3059e-014
lhumerus -3.58967 -30.771 87.7562
lradius 34.6958
lwrist -20.9326
lhand -24.8524 25.5403
lfingers 7.12502
lthumb 1.6541 55.5136
rfemur -30.8117 26.6857 8.10277
rtibia 9.64254
rfoot -9.48339 -28.8949
rtoes 14.7892
lfemur -26.6204 -7.77983 -14.7654
ltibia 17.6865
lfoot -8.415 26.0991
ltoes -6.14769
1285
root 0.22365 18.2526 1.06376 24.9386 -11.8399 -1.87956
lowerback 1.79118 -1.53236 4.09672
upperback -6.59045 -1.64226 3.10224
thorax -7.94481 -0.969815 1.11734
lowerneck -6.19978 3.42967 3.99909
upperneck 12.4848 5.21031 -7.98234
head 5.07704 2.24052 -2.80745
rclavicle 4.2043e-014 -6.36111e-015
rhumerus -8.26204 16.8084 -87.4347
rradius 35.8439
rwrist 48.2672
rhand -28.2794 13.2311
rfingers 7.12502
rthumb -1.6558 -16.7422
lclavicle 4.2043e-014 -6.36111e-015
lhumerus -3.54737 -30.8067 87.7611
lradius 34.6937
lwrist -20.9466
lhand -24.8361 25.3482
lfingers 7.12502
lthumb 1.6699 55.3215
rfemur -30.8124 26.6357 8.03155
rtibia 9.66194
rfoot -9.32691 -28.9202
rtoes 14.2991
lfemur -26.6005 -7.78621 -14.8596
ltibia 17.6647
lfoot -8.23869 26.0778
ltoes -6.43284
1286
root 0.223057 18.2528 1.0613 24.8957 -11.8297 -1.81672
lowerback 1.7859 -1.53977 4.06414
upperback -6.564 -1.65733 3.07348
thorax -7.91262 -0.975679 1.10525
lowerneck -6.17129 3.43352 4.01435
upperneck 12.4206 5.20975 -7.97735
head 5.05264 2.24321 -2.80879
rclavicle -3.22031e-014 1.03368e-014
rhumerus -8.20775 16.766 -87.4345
rradius 35.8371
rwrist 48.2536
rhand -28.1306 13.2538
rfingers 7.12502
rthumb -1.51203 -16.7206
lclavicle -3.22031e-014 1.03368e-014
lhumerus -3.50073 -30.8521 87.6928
lradius 34.69
lwrist -20.9188
lhand -24.9847 25.3266
lfingers 7.12502
lthumb 1.52633 55.3009
rfemur -30.7949 26.5871 8.00037
rtibia 9.7161
rfoot -9.37941 -28.9153
rtoes 14.2052
lfemur -26.5563 -7.7733 -14.9337
ltibia 17.6236
lfoot -8.14524 26.0189
ltoes -6.60419
1287
root 0.222892 18.254 1.05824 24.8808 -11.7883 -1.87364
lowerback 1.80062 -1.559 4.12168
upperback -6.55466 -1.67718 3.10612
thorax -7.91282 -0.987821 1.10964
lowerneck -6.15992 3.45498 4.01142
upperneck 12.4172 5.239 -7.97602
head 5.0514 2.25775 -2.80604
rclavicle 3.47873e-014 1.82882e-014
rhumerus -8.19028 16.7953 -87.4319
rradius 35.8435
rwrist 48.2515
rhand -28.0529 13.2901
rfingers 7.12502
rthumb -1.43701 -16.6848
lclavicle 3.47873e-014 1.82882e-014
lhumerus -3.48848 -30.8322 87.6676
lradius 34.6579
lwrist -20.8396
lhand -25.0734 25.3014
lfingers 7.12502
lthumb 1.44071 55.2763
rfemur -30.7919 26.5686 8.10342
rtibia 9.78549
rfoot -9.5514 -28.8573
rtoes 14.4258
lfemur -26.5171 -7.75869 -14.8639
ltibia 17.5703
lfoot -8.22269 25.9899
ltoes -6.4368
1288
root 0.223645 18.2541 1.0564 24.8817 -11.81 -1.81491
lowerback 1.77119 -1.55367 4.06082
upperback -6.56436 -1.67503 3.10778
thorax -7.90362 -0.982975 1.14427
lowerneck -6.17094 3.45476 3.99508
upperneck 12.4488 5.24331 -7.98357
head 5.06309 2.25776 -2.80528
rclavicle 2.14687e-014 2.14687e-014
rhumerus -8.23134 16.8079 -87.3879
rradius 35.8833
rwrist 48.2852
rhand -27.9871 13.205
rfingers 7.12502
rthumb -1.37347 -16.7704
lclavicle 2.14687e-014 2.14687e-014
lhumerus -3.50824 -30.8536 87.7025
lradius 34.6574
lwrist -20.7537
lhand -25.0769 25.226
lfingers 7.12502
lthumb 1.4373 55.2009
rfemur -30.8119 26.5372 8.03096
rtibia 9.78575
rfoot -9.57183 -28.8151
rtoes 14.5699
lfemur -26.5259 -7.74872 -14.9382
ltibia 17.5393
lfoot -8.20557 25.9991
ltoes -6.6672
1289
root 0.223472 18.2552 1.05493 24.8304 -11.8053 -1.77418
lowerback 1.7988 -1.54186 4.04916
upperback -6.56559 -1.65928 3.08505
thorax -7.92106 -0.975302 1.12645
lowerneck -6.13838 3.44349 3.99946
upperneck 12.4344 5.22409 -7.95928
head 5.05134 2.25113 -2.80021
rclavicle 1.16289e-014 -6.36111e-015
rhumerus -8.29597 16.8007 -87.3665
rradius 35.9118
rwrist 48.3266
rhand -27.9748 13.0764
rfingers 7.12502
rthumb -1.36155 -16.899
lclavicle 1.16289e-014 -6.36111e-015
lhumerus -3.54215 -30.8313 87.7487
lradius 34.6511
lwrist -20.7784
lhand -25.0769 25.1502
lfingers 7.12502
lthumb 1.43725 55.1251
rfemur -30.7311 26.5114 8.03316
rtibia 9.75862
rfoot -9.47465 -28.791
rtoes 14.4964
lfemur -26.4745 -7.73611 -14.9966
ltibia 17.5187
lfoot -8.12817 25.9701
ltoes -6.92668
